<svg xmlns="http://www.w3.org/2000/svg" viewBox="0 0 566.93 503.57"><defs><style>.cls-1{fill:#fff;}</style></defs><title>2</title><g id="Слой_3" data-name="Слой 3"><path class="cls-1" d="M566.93,329.18c-15.22,28.53-48,56.47-89.89,76.52-59.24,28.34-49.33,55.6-83.42,97.87H566.93Z"/><path class="cls-1" d="M566.88,262h0V0H401.49c11.93,24,14,49.4,15,65.06.59,9.28-2.57,11.58-7.29,6C394.31,53.45,371.1,14.21,331.48,0H242.66a20.73,20.73,0,0,1-5,1.06C210.7,8.43,190,23.86,176.35,55.15c-11.06,25.37-14.22,55.08-16,84.89-1.91,32,.74,57.57-14.09,57.28-25.55-.51-46.84-100.5-26-146.33C127.3,35.45,139.16,17.22,155,0H133.4c-19,18.08-62.7,59.67-27.49,179.86,1.63,5.65-1.47,11.87-9.07,6-25-19.46-72.68-59.55-73.47-101.51C22.54,40.45,30.1,17.37,45.48,0H0V157c11.66-6.56,23.52-9.18,27.52-8.12,9.9,2.6,43.24,47.92,54.88,79.69s-8,89.58-8,89.58,57.3,15.11,84.39,42.72,82.27,53.27,83.33,65.25c.94,11.06-186.33,2-242.13-51.5V503.57H299.75c-39.65-18.87-71.6-48.83-51.38-57.25,37.51-15.63,191.16-63.54,215.12-174.49s-5.72-186.47-15.64-224C455.68,26,534.32,18.69,550,123.39s-13,96.88-8.85,110.42C544,243,557.43,247.45,566.88,262ZM180.67,126c10.42-43.76,15.64-81.78,76.56-101s117.19,16.15,121.35,78.13S356.2,197.35,326.5,210.89s-14.07-24.79-5.73-33.34,50-82.36,13.54-116.67C289.78,19,238.47,55.68,228.58,74.94S215,144.28,260.36,143.41c39.58-.75,42.18-45.55,33.33-59.6s-33.33-4.7-41.15,5.2-1,25.52-7.29,24-16.13-12-3.12-33.34,54.17-29.17,70.3-12,16.7,22.65,12.5,50-45.75,92.94-56.18,102.83-67.26,5-77.68-1.26S170.24,169.74,180.67,126ZM420.79,304.12c-18.6,32.29-117.72,127.62-188,84.92-88.78-54-70.61-72.94-125.27-77.1-.19-8.33-.25-69.8,89.35-65.12,87,4.57,198.45,20.39,200.15-146.85.06-5,3.89-6.37,6.37-2.19C462.44,197.32,438.7,273,420.79,304.12Z"/></g></svg>